<?xml version="1.0" standalone="no"?><svg xmlns="http://www.w3.org/2000/svg" viewBox="0 0 1440 320"><path fill="#ffd700" fill-opacity="1" d="M0,256L15,213.3C30,171,60,85,90,85.3C120,85,150,171,180,202.7C210,235,240,213,270,176C300,139,330,85,360,106.7C390,128,420,224,450,245.3C480,267,510,213,540,181.3C570,149,600,139,630,149.3C660,160,690,192,720,176C750,160,780,96,810,80C840,64,870,96,900,101.3C930,107,960,85,990,80C1020,75,1050,85,1080,90.7C1110,96,1140,96,1170,117.3C1200,139,1230,181,1260,197.3C1290,213,1320,203,1350,170.7C1380,139,1410,85,1425,58.7L1440,32L1440,320L1425,320C1410,320,1380,320,1350,320C1320,320,1290,320,1260,320C1230,320,1200,320,1170,320C1140,320,1110,320,1080,320C1050,320,1020,320,990,320C960,320,930,320,900,320C870,320,840,320,810,320C780,320,750,320,720,320C690,320,660,320,630,320C600,320,570,320,540,320C510,320,480,320,450,320C420,320,390,320,360,320C330,320,300,320,270,320C240,320,210,320,180,320C150,320,120,320,90,320C60,320,30,320,15,320L0,320Z"></path></svg>